<mxfile host="app.diagrams.net" modified="2023-10-09T17:17:45.954Z" agent="Mozilla/5.0 (Windows NT 10.0; Win64; x64) AppleWebKit/537.36 (KHTML, like Gecko) Chrome/116.0.0.0 Safari/537.36 OPR/102.0.0.0" version="22.0.4" etag="m08yAmF-Vh9cOkY0Gwi_" type="github">
  <diagram name="PÃ¡gina-1" id="yXNoACiKxtxH76KOSWp_">
    <mxGraphModel>
      <root>
        <mxCell id="0" />
        <mxCell id="1" parent="0" />
      </root>
    </mxGraphModel>
  </diagram>
</mxfile>
